<svg width="1920" height="3040" viewBox="0 0 1920 3040" fill="none" xmlns="http://www.w3.org/2000/svg">
<g opacity="0.03">
<path fill-rule="evenodd" clip-rule="evenodd" d="M1037.08 634.669C1036.84 585.062 940.77 529.277 899.73 500.517C818.585 443.633 734.189 391.104 650.576 337.736C566.963 284.367 483.124 231.143 403.393 172.552C351.624 134.519 290.795 91.6826 255.685 37.3738C180.891 -78.3614 416.712 -61.1747 477.796 -63.7065C633.194 -70.1732 811.437 -67.222 957.098 -127.491C1044.05 -163.47 1078.73 -223.812 1060.05 -311.756C1054.03 -340.357 1036.21 -373.269 1051.31 -401.133C1067.42 -430.891 1104.5 -448.063 1135.28 -459.579C1247.53 -501.533 1376.59 -506.394 1495.36 -511.66C1623.43 -517.447 1752.7 -515.754 1879.87 -516.202C1933.79 -516.39 1990.1 -535.009 2041.45 -550.142C2108.77 -569.976 2175.28 -592.255 2242.04 -613.796C2388.91 -661.074 2540.24 -710.869 2695.63 -722.877C2792.93 -730.399 2899.29 -720.229 2974.88 -654.795C3012.83 -621.941 3032.7 -573.101 3054.64 -529.714C3081.2 -477.301 3106.71 -424.381 3134.99 -372.792C3226.08 -206.64 3356.13 -44.2775 3567.23 -36.1181C3599.16 -34.8885 3630.53 -38.8958 3662.31 -39.648C3682.55 -40.111 3700.57 -35.4094 3708.09 -15.0544C3727.01 35.9993 3667.55 116.595 3643.17 157.102C3589.79 245.769 3529.59 330.459 3473.2 417.347C3435.9 474.81 3371.32 553.336 3370.64 623.153C3370.04 685.361 3456.12 730.324 3502.99 760.965C3546.9 789.653 3626.46 829.798 3631.28 888.158C3633.61 916.455 3614.2 939.906 3593.93 958.105C3558.4 989.933 3517.46 1012.39 3485.5 1048.7C3433.08 1108.27 3389.29 1190.24 3396.41 1270.52C3401.34 1326.14 3434.36 1362.57 3476.36 1397.39C3494.02 1412.03 3508.34 1422.39 3509.28 1446.16C3510.78 1483.9 3495.4 1523.85 3482.73 1558.84C3437.4 1684.08 3373.02 1805.19 3301.4 1918.26C3265.61 1974.77 3226.95 2031.1 3179.5 2079.3C3148.43 2110.96 3106.51 2148.63 3059.11 2148.59C3004.22 2148.59 2946.15 2129.55 2892.8 2115.31C2793.16 2088.71 2694.72 2057.95 2596.68 2026.4C2369.94 1953.4 2145.33 1874.49 1922.85 1789.66C1766.14 1729.81 1606.11 1669.88 1458.78 1590.31C1430.04 1574.68 1402.92 1556.46 1377.78 1535.9C1350.92 1514.3 1317.59 1504.64 1283.79 1497.43C1074 1452.71 844.169 1487.04 633.51 1508.57C580.04 1514.03 526.571 1519.51 472.95 1523.33C426.855 1526.61 371.669 1536.03 326.868 1521.88C238.589 1494.03 315.762 1391.39 348.388 1349.57C463.259 1202.31 611.463 1077.72 748.832 950.525C814.146 889.952 879.956 829.538 941.718 765.536C973.878 732.262 1037.3 678.156 1037.08 634.669Z" stroke="#D9D9D9" stroke-width="5"/>
<path fill-rule="evenodd" clip-rule="evenodd" d="M1076.67 626.306C1041.46 573.815 979.687 535.017 928.409 498.504C854.618 445.94 778.507 396.297 703.541 345.223C632.656 296.925 561.62 248.077 495.976 193.229C455.947 159.781 405.724 119.784 386.764 70.3142C345.636 -36.9105 566.891 -20.6424 621.512 -23.4477C757.303 -30.3888 911.256 -31.9795 1036.88 -88.4333C1115.33 -123.688 1147.56 -182.152 1130.82 -263.319C1125.04 -291.401 1114.62 -315.376 1127.81 -343.314C1143.07 -375.648 1178.16 -395.806 1210.32 -410.035C1311.09 -454.617 1430.19 -464.088 1539.42 -471.969C1652.26 -480.111 1769.83 -485.851 1879.04 -479.894C1922.71 -477.522 1972.98 -490.985 2016.2 -501.31C2082.71 -517.216 2148.53 -535.567 2214.7 -552.63C2349.18 -587.335 2487.16 -620.768 2627.06 -624.571C2728.07 -627.319 2833.38 -612.424 2917.41 -554.857C3002.57 -496.48 3040.35 -405.986 3087.58 -319.961C3169.14 -171.234 3279.3 9.59455 3468 41.0172C3496.61 45.7892 3524.11 43.2009 3552.69 44.3722C3567.39 44.965 3584.12 46.8448 3591.58 60.7702C3610.93 96.9215 3557.9 163.021 3540.06 190.712C3490.75 267.237 3435.32 340.017 3383.65 415.067C3342.61 474.659 3290.6 540.874 3274.73 611.513C3255.46 697.235 3381.32 758.23 3425.58 818.588C3502.3 923.253 3356.94 982.888 3285.27 1032.79C3202.97 1090.08 3135.03 1194.6 3208.81 1283.25C3237.03 1317.14 3271.76 1337.34 3284.36 1381.58C3304.08 1450.76 3289.17 1529.81 3273.17 1598.2C3249.08 1701 3210.95 1802.68 3159.11 1895.59C3121.98 1962.11 3060.37 2066.41 2970.15 2058.59C2909.41 2053.37 2847.67 2034.3 2788.53 2017.44C2699.98 1992.2 2612.54 1963.44 2525.58 1933.57C2324.82 1864.79 2126.27 1788.96 1931.63 1705.55C1798.82 1648.62 1428.35 1415.97 1400.48 1407.67C1317.37 1382.94 1222.87 1387.29 1137.18 1391.12C1023.19 1396.21 909.781 1409.4 796.458 1421.62C742.515 1427.4 688.3 1434.48 634.071 1437.32C595.474 1439.35 544.783 1441.08 510.975 1419.52C444.984 1377.46 518.504 1281.21 548.91 1240.49C642.053 1115.65 759.878 1007.54 870.355 897.007C924.569 842.737 979.612 788.553 1028.83 729.93C1048.67 706.258 1098.43 658.727 1076.67 626.306Z" stroke="#D9D9D9" stroke-width="5"/>
<path fill-rule="evenodd" clip-rule="evenodd" d="M1125.38 599.385C1029.22 494.344 896.51 416.221 781.969 328.493C724.48 284.448 666.63 239.203 617.046 186.74C591.253 159.46 559.045 124.962 554.077 86.9349C540.796 -14.7944 740.215 -1.03855 799.902 -4.90059C915.301 -12.3932 1045.67 -18.0777 1150.36 -69.991C1214.32 -101.726 1245.82 -153.813 1233.87 -222.274C1228.57 -252.65 1220.32 -278.454 1233.87 -308.28C1247.6 -338.497 1276.21 -359.817 1305.18 -375.801C1388.43 -421.769 1491.89 -436.465 1585.62 -447.415C1695.58 -460.168 1806.36 -465.148 1917.08 -462.313C2014.05 -459.869 2110.55 -487.366 2205.23 -505.49C2330.66 -529.487 2458.36 -550.446 2586.71 -547.278C2688.07 -544.761 2790.24 -524.988 2876.89 -472.439C2964.94 -418.92 3017.89 -338.815 3065.62 -252.375C3137.77 -121.702 3227.69 53.4061 3385.99 103.034C3409.01 110.266 3430.47 111.062 3454.22 112.32C3465.75 112.928 3480.64 113.116 3486.36 124.673C3500.13 152.503 3449.25 206.456 3435.05 225.26C3389.73 285.287 3340.59 342.61 3294.14 401.843C3250.78 457.141 3203.54 514.768 3176.61 579.569C3133.74 682.774 3270.79 743.12 3266.95 841.464C3264.55 902.519 3203.71 946.303 3155.53 976.592C3096.2 1013.84 3010.78 1038.33 2981.09 1106.3C2958.97 1156.92 2993.67 1186.39 3020.4 1224.8C3065.69 1289.89 3068.78 1378.13 3064.07 1453.47C3057.71 1555.29 3032.88 1658.61 2990.62 1752.2C2971.46 1794.62 2948.01 1838.75 2913.46 1871.7C2881.11 1902.58 2850.48 1910.5 2807.23 1904.18C2674.85 1884.79 2541.19 1830.77 2414.24 1782.51C2254.74 1721.88 2097.43 1654.94 1944.83 1579.62C1840.77 1528.26 1734.36 1473.91 1643.02 1402.95C1619.21 1384.45 1594.84 1364.34 1577.43 1339.94C1564.27 1321.6 1558.68 1306.46 1536.5 1295.98C1470.76 1264.96 1379.32 1273.07 1308.88 1276.3C1196.26 1281.43 1084.17 1295.1 972.233 1307.41C906.914 1314.64 783.866 1337.4 731.707 1282.82C686.686 1235.7 741.013 1155.35 768.763 1113.83C838.961 1008.85 929.259 916.709 1013.04 821.836C1051.43 778.355 1091.34 734.542 1123.05 686.202C1131.15 673.878 1144.13 657.547 1146.36 642.577C1148.85 625.422 1137.19 612.331 1125.38 599.385Z" stroke="#D9D9D9" stroke-width="5"/>
<path fill-rule="evenodd" clip-rule="evenodd" d="M1133.65 623.838C1044.8 530.962 937.752 454.661 842.365 367.749C799.596 328.78 756.405 287.901 723.817 240.363C706.287 214.799 687.674 182.619 692.508 150.845C706.377 59.648 870.391 67.8847 936.653 62.5432C1035.11 54.6974 1148.22 46.7936 1235.28 -2.3804C1292.31 -34.5888 1313.7 -82.156 1303.05 -143.504C1291.62 -209.311 1317.18 -257.08 1375.34 -293.791C1448.26 -339.78 1540.3 -358.526 1624.96 -371.844C1726.97 -387.812 1830.27 -394.891 1933.59 -392.993C2034.09 -391.14 2131.45 -407.324 2231.28 -417.847C2363.64 -431.787 2500.24 -438.663 2631.11 -410.088C2745.05 -385.205 2847.97 -330.371 2925.12 -245.572C3005.7 -157.068 3045.59 -45.5614 3111.03 52.3523C3151.84 113.425 3208.75 194.214 3285.01 217.954C3310.44 225.872 3356.8 215.189 3336.48 254.144C3324.87 276.422 3303.14 295.964 3285.97 314.174C3258.23 343.603 3229.57 372.222 3201.37 401.246C3141.25 463.115 3076.87 526.301 3031.81 599.563C2975.04 691.802 3059.43 762.791 3049.15 856.318C3043.62 906.65 3007.2 946.82 2968.68 978.377C2943.76 998.817 2916.49 1016.52 2888.64 1033.04C2859.56 1050.29 2825.15 1063.44 2799.79 1085.74C2763.65 1117.49 2779.34 1155.07 2786.12 1196.11C2798.04 1268.23 2800.66 1341.49 2793.92 1414.23C2785.66 1503.38 2766.31 1595.09 2725.55 1676.11C2709.69 1707.65 2689.6 1741.09 2659.77 1762.24C2629.93 1783.39 2599.08 1781.94 2564.89 1775.57C2463.5 1756.75 2362.31 1712.96 2266.12 1671.46C2145.74 1619.51 2027.72 1561.44 1915.01 1495.39C1837.21 1449.79 1759.16 1400.53 1694.07 1338.71C1675.14 1320.71 1657.13 1301.45 1642.57 1279.94C1632.57 1265.18 1627.21 1246.15 1612.72 1235.06C1567.39 1200.45 1476.39 1210.78 1423.23 1212.8C1317.13 1216.81 1212.71 1235.87 1106.75 1240.5C1048.92 1243.04 958.354 1249.41 915.886 1202.08C875.948 1157.6 912.121 1087.54 935.99 1044.68C982.901 960.398 1045.93 885.313 1102.41 806.971C1125.64 774.733 1151.09 741.005 1166.13 704.193C1179.5 671.391 1156.42 647.651 1133.65 623.838Z" stroke="#D9D9D9" stroke-width="5"/>
<path fill-rule="evenodd" clip-rule="evenodd" d="M1155.5 625.358C1084.78 543.629 999.519 471.08 928.285 388.022C886.588 339.381 814.782 257.609 847.029 189.035C882.405 113.681 1005.72 111.629 1077 105.558C1161.84 98.3301 1261.46 88.4574 1334.07 41.4065C1357.03 26.5324 1376.59 6.84474 1384.88 -19.0874C1393.76 -46.8409 1384.06 -71.1253 1382.79 -98.9077C1380.14 -157.19 1416.35 -203.981 1464.26 -236.114C1531.97 -281.546 1616.64 -303.026 1696.62 -318.001C1787.23 -334.892 1879.34 -343.219 1971.64 -342.864C2059.85 -342.575 2147.13 -344.454 2235.42 -346.622C2350.9 -349.513 2468 -344.844 2580.01 -315.371C2690.35 -286.316 2790.67 -231.864 2869.48 -151.769C2946.35 -73.6115 2998.22 21.9213 3043.65 119.232C3069.43 174.464 3112.97 257.002 3174.46 284.9C3201.8 297.317 3228.63 296.464 3199.56 328.756C3162.95 369.418 3113.61 402.043 3071.2 436.822C3010.03 487.009 2947.33 538.18 2895.99 597.85C2863.2 635.953 2848.59 672.929 2850.85 722.264C2852.59 759.846 2860.51 797.039 2856.51 834.766C2847.13 923.318 2774.56 984.043 2710.39 1040.59C2669.12 1076.96 2631.43 1104.7 2610.18 1156.43C2585.05 1217.58 2574.5 1284.1 2557.71 1347.58C2539.26 1417.3 2517.95 1489.82 2477.69 1551.23C2441.84 1605.89 2398.25 1630.41 2333.01 1615.68C2231.24 1592.73 2130.93 1536.18 2040.59 1483.87C1948.63 1430.64 1858.26 1370.8 1782.06 1297.64C1740.92 1258.14 1712.84 1211.75 1676.31 1169.31C1630.35 1116.03 1526.39 1136.21 1464.6 1140.72C1362.04 1148.21 1039.32 1204.24 1069.1 1022.77C1081.53 947.024 1130.48 877.12 1166.27 810.28C1181.11 782.541 1202.58 749.251 1205.94 717.465C1209.6 682.845 1176.76 649.96 1155.5 625.358Z" stroke="white" stroke-width="5"/>
<path fill-rule="evenodd" clip-rule="evenodd" d="M1192.84 632.297C1138.8 558.235 1074.12 488.266 1027.74 408.274C997.659 356.469 968.117 287.252 1006.92 232.439C1050.73 170.583 1147.31 156.164 1218.28 148.281C1291.39 140.168 1378.68 133.342 1438.44 86.4399C1457.45 71.5001 1473.13 51.3539 1476.05 27.2305C1478.86 4.09048 1470.92 -19.0495 1473.55 -42.6089C1479.45 -95.5127 1512.82 -139.103 1555.86 -170.718C1683.16 -264.246 1872.62 -285.044 2026.21 -287.488C2103.09 -288.703 2182.21 -282.325 2259.58 -277.754C2359.99 -271.825 2460.54 -259.098 2556.3 -228.423C2759.89 -163.226 2896.35 -18.63 2991.65 161.298C3021.64 217.933 3044.6 279.21 3091.6 324.724C3115.83 348.225 3110.54 365.103 3085.77 386.536C3047.03 420.032 2999.79 445.63 2956.8 473.586C2895.65 513.344 2833.2 553.694 2779.13 601.319C2741.85 634.149 2715.39 665.778 2707.36 715.008C2701.63 750.109 2702.97 785.875 2699.52 821.192C2692.97 888.283 2670.51 954.869 2630.75 1010.52C2599.17 1054.63 2561.56 1094.72 2522.69 1132.95C2472.17 1182.71 2429.44 1233.27 2391.06 1292.34C2340.19 1370.52 2268.71 1514.74 2148.89 1476.57C2016.74 1434.46 1892.87 1327.45 1808.08 1223.77C1779.6 1188.96 1756.23 1146.27 1717.83 1120.59C1660.34 1082.23 1602.01 1083.57 1533.63 1083.73C1431.25 1083.95 1208.48 1105.31 1206.08 957.906C1205.13 899.506 1231.42 844.289 1244.01 788.116C1258.21 725.205 1229.75 682.772 1192.84 632.297Z" stroke="#F2F2F2" stroke-width="5"/>
<path fill-rule="evenodd" clip-rule="evenodd" d="M1233.09 638.901C1179.64 542.374 1059.76 383.759 1150.94 276.421C1199.1 219.696 1284.28 198.378 1355.74 185.675C1413.24 175.399 1482.59 171.54 1526.04 127.981C1557.98 95.9545 1543.8 49.3456 1556.04 9.2547C1571.22 -40.447 1606.08 -81.1159 1648.91 -111.683C1768.61 -197.111 1935.03 -223.327 2079.01 -228.906C2228.55 -234.687 2393.32 -207.647 2534.04 -155.632C2709.49 -90.7557 2840.94 32.0895 2932.86 187.655C2949.82 216.372 2965.23 245.84 2981.52 274.904C2992.46 294.4 3008.68 313.26 3017.31 333.768C3031.66 367.963 3014.75 395.913 2987.63 418.199C2948.62 450.283 2900.7 473.118 2856.23 497.196C2795.41 530.147 2733.24 562.506 2676.66 601.166C2638.65 627.18 2598.86 655.203 2585.25 700.338C2575.96 731.122 2574.04 763.726 2574.37 795.608C2575.09 863.968 2571.36 919.248 2538.16 981.856C2483.53 1084.64 2399.52 1177.06 2310.77 1253.97C2241.12 1314.32 2130.9 1408.07 2029.42 1367.72C1938.37 1331.59 1885.11 1245.11 1825.12 1175.19C1795.95 1141.19 1763.19 1110.15 1724.69 1085.97C1676.15 1055.49 1630.46 1042.7 1572.95 1037.71C1476.17 1029.32 1330.23 1027.14 1300.31 915.563C1289.26 874.388 1295.57 831.739 1289.77 790.03C1282.2 734.879 1260.06 687.591 1233.09 638.901Z" stroke="#D9D9D9" stroke-width="5"/>
<path fill-rule="evenodd" clip-rule="evenodd" d="M1288.68 642.475C1250.61 536.856 1200.61 403.746 1292.55 309.875C1337.08 264.401 1399.72 238.979 1460.35 219.982C1503.77 206.367 1572.72 202.36 1599.34 160.503C1618.89 129.699 1621.6 87.2054 1639.28 54.2029C1663.59 8.82985 1700.41 -28.542 1743.6 -57.7972C1856.13 -134.031 2002.7 -163.489 2136.36 -171.924C2426.79 -190.227 2722.3 -44.4574 2877.71 195.372C2924.05 266.86 2983.87 342.95 2908.98 415.986C2827.22 495.664 2704.06 532.993 2606.48 589.608C2569.19 611.224 2521.68 637.209 2500.88 676.346C2488.37 699.872 2487.51 729.387 2486.94 755.286C2485.43 821.247 2479.73 880.568 2452.13 942.117C2409.51 1037.23 2341.54 1124.98 2264.52 1196.86C2197.35 1259.54 2101.56 1333.2 2004.01 1288.01C1929.21 1253.29 1881.78 1179.59 1823.66 1125.26C1758.99 1064.75 1679.01 1023.98 1591.17 1004.06C1505.73 984.726 1412.01 971.69 1366.98 889.567C1351.53 861.397 1335.4 824.922 1329.61 793.743C1320.26 742.335 1306.57 691.745 1288.68 642.475V642.475Z" stroke="white" stroke-width="5"/>
<path fill-rule="evenodd" clip-rule="evenodd" d="M1350.66 643.22C1333.05 536.566 1331.09 425.356 1412.92 341.298C1451.1 302.082 1499.37 274.222 1548.19 248.98C1584.1 230.406 1621.19 214.74 1648.01 184.291C1672.86 156.097 1691.75 123.362 1715.75 94.4316C1747.4 56.092 1785.26 22.9027 1827.9 -3.86082C1934.77 -70.8211 2064.77 -102.139 2189.15 -113.002C2249.35 -118.282 2314.66 -121.03 2374.46 -106.637C2432.22 -92.7507 2489.33 -70.7921 2542.43 -45.1884C2655.32 9.18702 2753.16 88.819 2824.08 189.498C2872.71 258.556 2899.01 325.704 2836.03 395.76C2765.03 474.727 2653.71 518.296 2561.95 569.547C2499.02 604.698 2428.49 639.155 2416.73 713.854C2407.37 773.292 2399.77 829.707 2375.55 885.891C2339.5 968.763 2286.51 1043.83 2219.7 1106.65C2158.6 1163.87 2081.31 1212.43 1993.92 1181.87C1924.68 1157.61 1870.96 1103.26 1810.47 1064.41C1743.05 1021.01 1668.98 997.086 1590.98 977.848C1520.88 960.489 1454.88 933.815 1409.57 877.183C1400.3 865.611 1390.56 853.011 1383.41 840.065C1374.29 823.545 1375 807.17 1373.21 788.655C1368.54 739.791 1358.62 691.491 1350.66 643.22Z" stroke="#F2F2F2" stroke-width="5"/>
<path fill-rule="evenodd" clip-rule="evenodd" d="M1419 634.502C1420.51 533.197 1445.86 437.456 1515.29 358.507C1544.97 324.734 1580.42 296.916 1613.08 265.968C1639.38 241.019 1664.23 217.837 1694.47 197.277C1766.21 148.595 1824.51 85.5985 1900.74 42.2484C2002.5 -15.7063 2119.07 -47.7407 2234.74 -60.5487C2291.22 -66.8078 2349.56 -68.9956 2406.7 -61.9251C2455.78 -55.8544 2502.78 -34.5416 2546.38 -12.7361C2631.83 29.9765 2714.81 90.6841 2770.29 167.489C2892.62 336.818 2651.44 459.928 2527.65 532.024C2470.72 565.188 2383.73 603.598 2360.41 669.289C2343.74 716.218 2333.58 763.944 2312.11 809.424C2254.45 931.563 2137.38 1075.22 1981.38 1056.09C1914.63 1047.92 1853.78 1014.73 1791.47 992.445C1727.3 969.495 1661.07 956.701 1594.38 942.662C1532.05 929.55 1482.37 910.888 1442.11 860.859C1422.87 836.967 1424.57 808.366 1422.85 779.056C1420.05 730.91 1418.32 682.489 1419 634.502Z" stroke="#D9D9D9" stroke-width="5"/>
<path fill-rule="evenodd" clip-rule="evenodd" d="M1481.23 621.526C1506.29 468.616 1599.37 301.681 1736.24 212.878C1897.23 108.417 2071.65 20.4534 2264 -4.83408C2353.18 -16.5597 2450.87 -22.3286 2535.02 16.0147C2599.06 45.177 2673.45 88.7687 2708.69 150.072C2794.92 300.018 2603.13 419.385 2493.85 488.756C2435.02 526.102 2360.14 562.493 2315.8 617.03C2290.07 648.65 2276.94 690.478 2256.17 725.206C2193.22 830.448 2089.61 915.332 1960.55 930.514C1900.88 937.526 1840.77 928.851 1781.54 921.954C1720.92 914.899 1659.54 911.067 1599.3 901.221C1551.21 893.356 1494.53 880.04 1476.82 830.578C1454.48 768.249 1471 683.971 1481.23 621.526Z" stroke="#D9D9D9" stroke-width="5"/>
<path fill-rule="evenodd" clip-rule="evenodd" d="M1542.25 596.963C1578.8 453.201 1656.2 312.97 1786.32 227.147C1855.33 181.638 1935.43 150.223 2012.33 119.185C2099.5 84.0075 2190.58 56.7022 2283.6 43.158C2399.43 26.2858 2587.01 11.0775 2647.52 137.909C2707.59 263.8 2555.81 375.221 2466.06 438.716C2408.52 479.392 2346.94 516.725 2291.96 561.192C2262.15 585.3 2239.18 613.155 2213.95 641.43C2144.23 719.771 2044.83 781.791 1943.51 814.899C1845.31 846.994 1723.84 861.203 1620.18 850.597C1575.46 846.039 1543.49 830.657 1529.96 786.928C1511.22 726.138 1527.14 656.348 1542.25 596.963Z" stroke="#F2F2F2" stroke-width="5"/>
<path fill-rule="evenodd" clip-rule="evenodd" d="M1602.89 558.243C1639.2 431.666 1717.52 316.055 1831.76 240.086C1959.82 154.923 2124.72 107.601 2276.28 83.5363C2356.84 70.7547 2531.42 36.0989 2572.48 135.282C2613.55 234.466 2494.84 332.208 2426.52 386.015C2343.59 451.22 2254.19 514.177 2164.89 572.681C2087.31 623.548 2004.52 675.554 1920.49 714.835C1873.09 737.119 1823.72 755.314 1772.96 769.204C1735.37 779.406 1687.57 794.623 1648.16 787.029C1548.76 767.849 1585.52 618.764 1602.89 558.243Z" stroke="white" stroke-width="5"/>
<path fill-rule="evenodd" clip-rule="evenodd" d="M1677.73 520.339C1757.41 280.967 2009.83 163.24 2252.87 122.205C2309.35 112.68 2467.67 78.3375 2499.24 151.46C2529.83 222.357 2432.54 306.435 2386.99 346.27C2245.85 469.707 2071.48 561.229 1906.24 651.899C1854.66 680.199 1761.64 741.614 1697.67 713.284C1628.2 682.469 1661.23 569.974 1677.73 520.339Z" stroke="#D9D9D9" stroke-width="5"/>
<path fill-rule="evenodd" clip-rule="evenodd" d="M1759.34 474.266C1828.63 297.987 2030.15 196.884 2215.43 163.554C2260.82 155.399 2376.07 130.007 2410.44 179.2C2442.25 224.705 2366.34 290.641 2337.95 316.842C2274.72 375.188 2199.79 423.252 2125.77 469.451C2057.33 512.194 1988.15 556.008 1916.13 592.157C1878.2 611.186 1807.06 651.789 1763.96 622.407C1717.55 590.798 1743.96 513.409 1759.34 474.266Z" stroke="#D9D9D9" stroke-width="5"/>
<path fill-rule="evenodd" clip-rule="evenodd" d="M1849.27 422.764C1902.08 307.646 2043.52 232.893 2168.28 208.052C2201.85 201.383 2274.41 184.08 2302.73 214.823C2328.8 243.136 2286.78 284.643 2268.13 303.812C2185.48 388.78 2064.44 464.676 1953.55 511.29C1925.66 523.009 1875.54 546.012 1846.86 522.358C1817.44 498.067 1837.14 449.196 1849.27 422.764Z" stroke="#D9D9D9" stroke-width="5"/>
<path fill-rule="evenodd" clip-rule="evenodd" d="M-468.423 770.325C-470.332 657.391 -532.773 540.021 -501.935 424.949C-476.614 330.441 -349.133 322.551 -272.656 279.733C-211.884 245.715 -177.395 185.455 -144.529 127.638C-114.999 75.7302 -88.4752 22.262 -57.3676 -28.7929C-37.2304 -61.7986 -2.65134 -126.611 41.0195 -127.781C82.8269 -128.908 121.163 -78.4026 145.448 -48.5472C177.111 -9.63102 205.183 31.8574 235.93 71.3949C287.746 138.086 349.916 187.45 421.103 234.169C502.113 287.329 584.46 338.673 668.145 388.201C729.759 424.776 791.794 461.076 851.019 501.264C888.167 526.481 970.159 573.793 970.535 620.281C970.715 642.463 948.85 667.03 934.107 684.761C909.161 714.776 880.729 742.218 852.206 769.067C799.082 819.082 743.705 866.827 688.929 915.151C617.832 977.868 549.921 1039.56 487.421 1110.76C422.801 1184.46 361.067 1260.58 298.07 1335.67C255.406 1386.54 212.787 1443.66 151.248 1474.88C74.1708 1513.89 10.9037 1472.75 -67.0455 1472.27C-134.1 1471.86 -129.155 1322.49 -137.676 1280.96C-146.227 1238.92 -165.072 1199.79 -172.375 1157.65C-181.482 1105.05 -181.603 1051.23 -183.842 998.07C-186.562 933.041 -187.644 871.134 -259.943 846.336C-301.089 832.246 -345.601 829.284 -388.19 820.845C-415.781 815.368 -467.822 806.004 -468.423 770.325Z" stroke="white" stroke-width="5"/>
<path fill-rule="evenodd" clip-rule="evenodd" d="M-435.458 750.235C-442.487 655.569 -484.011 534.403 -444.744 436.684C-411.197 353.176 -306.279 342.35 -235.632 298.484C-177.311 262.302 -151.348 203.094 -122.195 144.928C-98.8068 98.2681 -76.1256 51.1595 -49.5763 5.99013C-30.0106 -27.2971 -0.135137 -83.4947 40.5466 -90.3837C77.1195 -96.578 116.341 -46.9655 136.87 -21.7251C166.821 15.1224 192.437 55.1394 218.896 94.317C265.387 163.135 312.992 225.02 381.036 275.573C449.381 326.344 524.152 364.306 599.721 403.816C658.84 434.73 717.657 466.541 773.826 502.23C815.667 528.802 875.824 562.813 894.968 610.197C910.124 647.681 833.261 709.885 810.595 731.84C763.938 776.98 714.497 819.357 664.965 861.472C604.582 912.792 542.273 957.672 488.949 1016.21C393.573 1120.88 313.85 1251.22 191.128 1329.01C117.109 1375.93 34.737 1387.93 -47.5897 1380.91C-80.1892 1378.13 -88.0155 1333.89 -92.1243 1308.09C-98.9573 1265.22 -99.8152 1221.61 -105.068 1178.57C-109.989 1138.28 -120.916 1100 -129.721 1060.49C-138.631 1020.45 -141.129 979.439 -147.691 939.133C-151.755 914.109 -155.773 884.99 -173.548 864.873C-191.94 844.047 -222.282 835.32 -248.801 828.691C-298.603 816.361 -430.492 817.041 -435.458 750.235Z" stroke="#D9D9D9" stroke-width="5"/>
<path fill-rule="evenodd" clip-rule="evenodd" d="M-393.031 710.606C-404.852 623.71 -421.401 515.48 -373.245 435.42C-333.883 369.959 -249.934 355.837 -189.973 313.184C-140.1 277.715 -121.263 221.301 -96.5071 168.877C-76.1937 125.877 -55.7749 82.6893 -31.1549 41.7706C-12.4829 10.7382 11.58 -31.3368 48.653 -42.1627C80.3503 -51.4131 116.158 -9.97407 133.731 10.6515C163.652 45.8032 188.046 85.1899 212.274 124.056C251.907 187.653 288.378 255.586 344.785 307.316C399.597 357.514 464.708 387.144 531.039 420.46C581.845 445.986 632.335 472.494 680.205 502.934C716.961 526.291 762.512 553.97 781.666 592.837C798.23 626.355 755.706 666.031 734.459 689.677C699.373 728.702 660.433 764.504 622.035 800.451C580.595 839.231 534.698 875.004 494.598 914.737C410.273 998.353 342.903 1090.93 238.972 1154.99C171.663 1196.49 81.0881 1234.18 1.52113 1227.4C-55.6996 1222.52 -51.9351 1100.79 -57.4313 1061.89C-66.4661 998.295 -83.9185 931.475 -111.64 872.894C-135.447 822.695 -192.021 807.215 -244.061 795.956C-276.662 788.888 -310.829 785.072 -342.361 774.145C-378.861 761.484 -388.077 747.03 -393.031 710.606Z" stroke="#D9D9D9" stroke-width="5"/>
<path fill-rule="evenodd" clip-rule="evenodd" d="M-353.455 669.875C-360.493 596.408 -358.911 509.533 -313.321 445.982C-273.368 390.317 -202.234 375.661 -151.641 331.81C-112.155 297.599 -96.6475 241.818 -75.4127 196.576C-49.4606 141.258 -13.0946 39.0896 52.3733 18.2731C113.275 -1.07923 176.964 122.544 199.013 159.408C233.917 217.755 263.109 281.741 305.443 335.623C341.9 382.01 390.744 407.654 442.588 435.211C508.689 470.408 609.046 512.142 644.387 580.738C670.731 631.851 585.068 707.84 555.816 743.254C525.222 780.248 502.178 824.099 470.605 859.789C420.781 916.106 340.046 961.45 273.388 996.052C208.583 1029.71 124.427 1066.97 50.9114 1064.75C2.59417 1063.3 -6.59904 991.573 -16.9075 956.536C-31.677 906.727 -51.3143 862.094 -93.4977 828.216C-136.435 793.73 -187.043 777.48 -240.243 763.259C-267.551 756.011 -298.703 750.357 -323.132 735.716C-350.124 719.785 -350.742 698.113 -353.455 669.875Z" stroke="#F2F2F2" stroke-width="5"/>
<path fill-rule="evenodd" clip-rule="evenodd" d="M-305.235 627.529C-304.845 564.059 -289.748 496.378 -244.982 447.42C-207.697 406.64 -149.337 393.009 -113.645 351.321C-85.3731 318.317 -70.982 271.984 -52.0543 233.657C-28.9054 186.689 3.82755 104.641 61.3919 88.3404C117.574 72.473 167.267 162.845 188.809 198.604C220.355 251.039 245.892 306.618 277.724 358.908C302.66 399.933 333.155 426.374 373.759 452.815C421.424 483.871 487.927 518.275 513.389 569.656C531.746 606.858 487.311 666.303 471.177 699.077C460.361 721.089 450.462 743.448 445.024 767.306C440.788 785.886 440.367 803.08 428.094 819.034C397.194 859.164 329.445 864.4 283.477 877.628C222.428 895.183 157.653 915.133 93.7643 918.941C54.4968 921.321 34.4574 886.543 12.0446 862.078C-14.4392 833.156 -51.9341 812.355 -84.6821 790.531C-127.9 761.681 -174.934 743.736 -223.591 725.359C-245.538 717.064 -271.315 708.929 -288.32 692.441C-306.076 675.348 -305.37 650.436 -305.235 627.529Z" stroke="white" stroke-width="5"/>
<path fill-rule="evenodd" clip-rule="evenodd" d="M-254.59 589.85C-246.831 536.544 -222.651 485.596 -181.81 447.913C-150.502 418.982 -108.924 402.694 -83.7963 367.933C-60.3832 335.53 -44.0677 298.686 -24.7297 264.041C-4.26386 227.414 26.1416 166.195 73.3438 156.228C124.215 145.495 163.402 207.249 185.101 241.474C212.514 284.726 233.341 331.262 257.852 376.005C276.317 409.353 299.871 439.852 327.73 466.487C356.948 494.565 396.571 521.457 411.353 560.065C424.42 594.262 399.97 635.634 395.654 670.308C391.037 707.354 399.127 746.267 373.534 778.077C320.753 843.679 188.289 831.513 112.561 832.916C37.8406 834.363 -22.2335 794.221 -82.6986 756.031C-122.638 730.818 -164.231 709.466 -205.178 685.974C-246.921 662.005 -261.417 636.762 -254.59 589.85Z" stroke="#D9D9D9" stroke-width="5"/>
<path fill-rule="evenodd" clip-rule="evenodd" d="M-207.536 559.34C-184.59 482.115 -112.924 441.07 -61.6909 382.71C-19.7715 334.933 11.6605 235.992 82.2583 222.904C162.411 208.049 210.394 339.146 238.26 389.732C269.18 445.834 324.25 491.468 347.151 550.856C359.188 582.027 348.851 611.113 342.441 642.269C335.415 676.48 330.133 711.459 305.878 738.995C258.136 793.186 164.893 792.81 97.7411 794.301C28.2266 795.85 -33.2682 758.714 -88.6541 721.651C-147.395 682.402 -231.038 638.534 -207.536 559.34Z" stroke="#D9D9D9" stroke-width="5"/>
<path fill-rule="evenodd" clip-rule="evenodd" d="M-169.104 538.399C-143.248 483.379 -88.9151 438.649 -44.8271 396.423C-8.02907 361.22 31.5577 290.354 87.6641 285.303C153.607 279.344 193.572 355.017 219.519 401.417C245.056 447.01 281.854 495.151 295.995 545.192C310.741 597.32 271.473 667.523 234.023 704.41C192.254 745.542 123.917 760.74 65.2791 759.099C3.88332 757.43 -52.4505 723.436 -98.9482 688.176C-148.659 650.483 -199.173 602.27 -169.104 538.399Z" stroke="white" stroke-width="5"/>
<path fill-rule="evenodd" clip-rule="evenodd" d="M-133.443 528.041C-108.746 482.278 -65.9345 443.567 -26.4609 409.036C4.00138 382.377 48.9515 337.048 92.9003 335.937C141.249 334.712 182.224 372.761 201.445 411.761C220.393 450.228 240.357 498.455 243.194 540.656C249.353 632.556 123.954 735.499 29.7912 727.122C-59.487 719.178 -182.686 619.219 -133.443 528.041Z" stroke="#D9D9D9" stroke-width="5"/>
<path fill-rule="evenodd" clip-rule="evenodd" d="M-100.464 522.995C-66.392 463.37 16.3686 378.368 92.988 376.349C180.934 374.042 203.012 468.633 191.549 537.184C179.903 607.147 78.5072 708.415 -2.34279 694.731C-81.2519 681.378 -140.843 593.708 -100.464 522.995Z" stroke="#D9D9D9" stroke-width="5"/>
<path fill-rule="evenodd" clip-rule="evenodd" d="M-65.6419 513.354C-36.7946 463.431 24.7633 401.075 88.967 399.187C165.467 396.954 164.024 476.816 146.677 526.523C128.638 578.131 49.1911 666.277 -17.7935 652.359C-82.9292 638.773 -93.2866 561.202 -65.6419 513.354Z" stroke="white" stroke-width="5"/>
<path fill-rule="evenodd" clip-rule="evenodd" d="M-35.313 507.608C-16.2718 471.986 31.384 426.964 76.6879 425.523C132.063 423.792 121.298 487.134 106.991 517.707C89.9851 554.086 32.9821 617.298 -14.8546 607.053C-61.9526 596.969 -51.0224 536.959 -35.313 507.608Z" stroke="#D9D9D9" stroke-width="5"/>
<path fill-rule="evenodd" clip-rule="evenodd" d="M2569.61 2542.93C2447.04 2614.4 2308.48 2673.39 2177.82 2733.35C1986.88 2820.97 1793.12 2906.23 1592.49 2971.5C1484.92 3006.48 1345.54 3056.92 1230.12 3029.51C1187.92 3019.49 1149.43 2989.19 1111.6 2969.51C1059.42 2942.36 1006.48 2916.55 953.63 2890.69C847.612 2838.85 741.264 2787.53 637.066 2732.37C586.893 2705.8 538.21 2672.34 485.976 2649.67C455.451 2636.41 418.923 2642.61 386.307 2643.45C310.754 2645.4 235.246 2649.11 159.738 2652.26C67.3809 2656.1 -25.1872 2660.19 -117.65 2658.68C-159.353 2657.98 -261.489 2665.09 -284.447 2630.57C-296.798 2611.98 -267.688 2578.46 -254.193 2562.95C-229.415 2534.44 -200.936 2508.75 -172.833 2483.33C-107.841 2424.52 -38.8174 2368.52 18.953 2302.83C48.6356 2269.06 87.5254 2227.8 68.1482 2181.7C48.5905 2135.14 14.7104 2094.82 -5.96055 2048.42C-29.7608 1995.02 -39.6299 1939.45 -50.868 1882.83C-59.1876 1840.98 -78.5647 1803.9 -96.7834 1765.32C-116.913 1722.67 -137.764 1679.67 -151.741 1634.69C-160.978 1604.99 -175.887 1551.54 -143.571 1532.74C-97.656 1505.99 -11.5571 1527.65 40.7823 1535.53C113.116 1546.4 184.923 1560.25 257.06 1572.17C309.43 1580.85 361.98 1590.36 415.222 1591.37C501.05 1593 587.164 1587.35 672.767 1582.09C831.274 1572.35 988.646 1559.13 1147.69 1559.13C1287.03 1559.13 1609.02 1714.06 1684.4 1741.33C1834.84 1795.79 1989.29 1847.41 2131.65 1919.86C2170.16 1939.48 2229.44 1965.62 2249.7 2005.99C2262.21 2030.87 2256.46 2045.25 2285.95 2061.29C2326.17 2083.16 2377.72 2091.75 2422.25 2101.53C2493.96 2117.29 2566.24 2130.63 2638.28 2144.9C2784 2173.68 2928.73 2206.24 3073.85 2237.56C3117.72 2247.03 3170.8 2249.13 3212.62 2265.81C3239.58 2276.52 3236.78 2290.01 3215.91 2306.28C3179.31 2334.85 3128.01 2350.71 3084.77 2367C3021.42 2390.87 2957.03 2412.16 2892.61 2433.15C2828.19 2454.14 2763.44 2474.48 2698.99 2495.51C2656.41 2509.36 2607.87 2520.62 2569.61 2542.93Z" stroke="white" stroke-width="5"/>
<path fill-rule="evenodd" clip-rule="evenodd" d="M2468.75 2527.21C2339.1 2598.82 2195.18 2655.87 2056.44 2711.54C1878.88 2782.82 1697.3 2849.63 1510.21 2894.19C1400.37 2920.33 1270.76 2949.2 1158.52 2919.22C1118.48 2908.52 1088.56 2884.47 1054.24 2863.25C1015.12 2839.03 974.488 2816.84 933.859 2794.99C850.225 2750.03 765.707 2706.6 680.307 2664.7C635.074 2642.42 585.281 2612.59 534.18 2604.86C493.551 2598.71 447.4 2607.61 406.591 2610.2C333.098 2614.86 259.621 2619.67 186.098 2623.75C101.26 2628.45 16.1807 2632.8 -68.8383 2632.05C-116.223 2631.63 -197.571 2638.56 -231.082 2609.13C-260.319 2583.45 -153.873 2490.57 -135.153 2472.92C-76.6934 2417.82 -15.2087 2365.36 39.2035 2306.44C71.3602 2271.7 110.514 2229.44 124.072 2183.39C135.614 2144.14 113.343 2099.42 100.191 2063.15C83.7445 2017.7 70.4724 1970.6 51.362 1926.11C34.3431 1886.48 7.25726 1851.17 -16.533 1815.13C-42.7008 1775.5 -69.1997 1735.21 -88.6261 1691.97C-100.529 1665.36 -120.226 1620.8 -96.5713 1595.44C-69.2448 1566.2 14.9919 1585.31 49.6164 1589.47C119.859 1598.04 189.559 1610.78 259.32 1622.19C375.187 1641.13 485.651 1657.69 603.639 1653.72C757.291 1648.54 910.791 1636.35 1064.41 1629.6C1121.14 1627.08 1178.77 1622.02 1235.55 1624.75C1268.1 1626.33 1292.88 1635.89 1311.81 1657.44C1337.66 1686.86 1397.21 1703.14 1438.62 1720.02C1503.19 1746.33 1568.57 1770.79 1633.77 1795.58C1776.9 1850.01 1922.79 1902.47 2058.53 1972.87C2101.48 1995.14 2150.65 2019.96 2182.42 2056.75C2200.15 2077.26 2195.68 2097.02 2206.5 2118.82C2220.82 2147.5 2267.92 2160.44 2296.07 2169.82C2350.41 2187.95 2406.98 2200.09 2463.1 2211.47C2590.1 2237.21 2717.41 2254.14 2846.47 2266.6C2876.72 2269.49 2995.82 2279.53 2933.27 2327.88C2864.15 2381.31 2764.36 2407.5 2682.99 2437.61C2609.7 2464.68 2536.34 2489.87 2468.75 2527.21Z" stroke="#D9D9D9" stroke-width="5"/>
<path fill-rule="evenodd" clip-rule="evenodd" d="M2289.57 2513.96C2167.71 2576.97 2032.7 2623.97 1901.45 2668.94C1742.18 2723.5 1578.92 2772.14 1411.88 2799.38C1306.94 2816.48 1191.25 2829.62 1087.03 2801.2C1015.85 2781.81 960.793 2729.37 898.278 2693.29C835.763 2657.21 770.718 2623.35 703.729 2595.12C662.153 2577.6 617.429 2559.95 571.168 2562.27C458.686 2567.87 346.34 2581.24 233.738 2587.73C159.248 2592.07 84.6066 2595.64 9.89012 2594.57C-35.1657 2593.94 -97.0632 2596.54 -136.952 2573.76C-181.044 2548.56 53.7256 2333.46 75.9146 2309.25C131.545 2248.55 198.911 2167.98 188.155 2081.65C177.867 1999.12 133.278 1937.5 82.8439 1872.83C54.2227 1836.05 -37.5611 1737.78 -3.54697 1689.94C15.8853 1662.59 79.9366 1672.06 110.366 1673.92C170.335 1677.59 229.972 1685.48 289.625 1692.33C376.603 1702.26 465.977 1717.6 553.332 1722.09C614.16 1725.22 675.349 1721.04 736.282 1720.95C823.652 1720.84 911.022 1721.47 998.392 1722.22C1071.75 1722.86 1145.73 1722.22 1218.84 1728.99C1264.28 1733.15 1298.78 1742.5 1331.38 1768.93C1359.74 1791.91 1402.54 1805.36 1438.69 1819.98C1498.41 1844.1 1558.9 1866.46 1619.2 1889.18C1745.45 1936.76 1873.15 1983.35 1993.99 2042.81C2049.15 2069.94 2141.9 2107.93 2154.84 2173.7C2159.51 2197.42 2162.95 2207.67 2187.05 2221.16C2221.26 2240.29 2262.23 2248.92 2300.61 2256.42C2390.09 2273.91 2482.16 2271.3 2571.49 2288.58C2607.87 2295.71 2655.37 2311.09 2613.84 2346.3C2565.38 2387.48 2494.83 2410.11 2436.78 2435.55C2407.79 2448.24 2377.94 2460.12 2350.41 2475.62C2329.28 2487.55 2311.19 2502.86 2289.57 2513.96Z" stroke="#D9D9D9" stroke-width="5"/>
<path fill-rule="evenodd" clip-rule="evenodd" d="M2058.75 2494.29C1946.16 2545.46 1823.89 2582.67 1703.81 2616.21C1570.43 2653.42 1433.84 2684.23 1295.44 2697.35C1199.88 2706.43 1098.06 2709.11 1005.31 2681.31C946.649 2663.72 906.884 2626.73 856.409 2595.71C780.232 2548.83 697.812 2511.68 606.294 2520.72C503.691 2530.83 400.752 2538.42 297.477 2543.48C235.181 2546.54 172.645 2548.83 110.274 2546.7C70.8389 2545.36 20.0338 2543.12 -14.2724 2525.95C-60.1746 2502.96 112.244 2327.99 133.736 2302.49C187.038 2239.25 226.112 2172.9 248.943 2094.54C267.562 2030.61 229.526 1980.35 190.287 1932.52C165.892 1902.82 87.0671 1828.12 111.748 1789.55C125.284 1768.28 169.892 1769.38 193.851 1768.29C239.513 1766.24 285.37 1768.38 331.031 1769.32C398.456 1770.77 470.227 1760.82 537.08 1768.83C685.239 1786.56 833.022 1801.92 982.099 1814.08C1064.28 1820.77 1146.95 1826.86 1228.39 1839.77C1257.63 1844.4 1287.83 1849.31 1315.54 1859.8C1333.36 1866.54 1343.07 1878.01 1358.11 1887.43C1429.83 1932.26 1523.43 1955.32 1604.2 1984.05C1711.57 2022.25 1819.51 2059.84 1924.03 2104.96C1979 2128.69 2055.78 2155.96 2093.6 2204.39C2105.03 2219.03 2100.16 2230.73 2107.35 2244.8C2115.62 2261.03 2140.75 2265.87 2156.98 2270.39C2193.81 2280.66 2347.99 2296.19 2276.94 2356.45C2243.04 2385.15 2199.84 2403.57 2161.63 2426.12C2147.79 2434.29 2134.3 2442.51 2122.76 2453.54C2103.47 2472.02 2084.46 2482.57 2058.75 2494.29Z" stroke="#F2F2F2" stroke-width="5"/>
<path fill-rule="evenodd" clip-rule="evenodd" d="M1812.82 2472.14C1590.55 2554.93 1330.06 2611.33 1087.74 2600.4C1007.15 2596.76 920.45 2584.58 850.596 2542.93C809.407 2518.32 776.492 2490.55 727.014 2481.66C691.296 2475.25 652.835 2482.53 616.906 2485.16C564.866 2488.98 512.795 2492.4 460.68 2495.16C396.071 2498.54 331.251 2501.14 266.521 2499.75C220.268 2498.75 156.397 2499.88 116.218 2476C68.2471 2447.52 190.352 2313.89 207.533 2290.08C249.174 2232.37 278.367 2176.46 288.916 2106.91C292.021 2086.65 302.48 2065.88 301.124 2045.46C299.707 2024.6 286.339 2006.03 273.996 1989.63C257.855 1968.14 201.851 1917.16 217.887 1890.95C226.748 1876.48 260.01 1874.65 277.251 1871.58C309.594 1865.79 342.403 1862.68 374.941 1858.08C430.146 1850.23 484.959 1824.69 540.36 1825.41C689.337 1827.32 840.469 1871.73 986.461 1896.12C1073.25 1910.66 1160.64 1923.86 1246.38 1943.56C1273.5 1949.8 1301.44 1956.26 1327.23 1966.84C1345.23 1974.22 1356.78 1987.37 1373.45 1995.64C1437.37 2027.38 1510.87 2046.65 1579.5 2068.01C1668.6 2095.8 1758 2122.75 1846.49 2152.33C1901.95 2170.88 1973.26 2187.19 2021.05 2221.58C2055.96 2246.69 2032.1 2254.2 2013.68 2277.59C2004.28 2289.52 2006.45 2301.27 2002.37 2314.78C1996.53 2334.05 1980.04 2347.93 1964.58 2360.41C1943.26 2377.65 1914.85 2391.85 1897.41 2412.98C1891.26 2420.42 1891.55 2429.65 1886.57 2436.14C1872.11 2455.03 1833.72 2464.35 1812.82 2472.14Z" stroke="white" stroke-width="5"/>
<path fill-rule="evenodd" clip-rule="evenodd" d="M1576.5 2442.64C1396.11 2494.69 1195.39 2524.33 1004.7 2510.57C938.359 2505.78 871.608 2494.65 809.807 2470.19C781.69 2459.1 760.583 2446.74 729.772 2446.07C658.283 2444.54 586.567 2449.91 515.092 2451.2C463.942 2452.12 412.537 2452.46 361.507 2448.5C327.387 2445.87 281.246 2442.71 253.294 2422.6C212.675 2393.31 286 2293.74 300.924 2266.23C325.657 2220.61 350.194 2169.89 340.385 2117.1C337.376 2100.95 332.05 2086.69 331.358 2070.23C330.696 2056.08 332.547 2043.02 327.327 2029.5C320.873 2012.73 292.168 1986.72 302.037 1971.28C308.762 1960.74 328.711 1960.25 341.98 1956.87C363.501 1951.4 384.514 1944.23 404.804 1935.42C426.167 1926.09 444.355 1911.69 466.485 1903.98C502.41 1891.5 542.623 1890.33 580.384 1890.39C731.051 1890.62 883.629 1919.19 1030.47 1949.06C1106.94 1964.61 1183.83 1981.18 1258.15 2004.77C1280.72 2011.94 1306.29 2019.13 1326.14 2032.37C1338.52 2040.61 1346.91 2050.93 1360.98 2057.13C1481.14 2110.03 1620.05 2129.68 1747.61 2167.89C1780.82 2177.84 1964.82 2228.09 1868.61 2275.37C1810.17 2304.09 1748.41 2317.15 1695.08 2356.45C1678.83 2368.39 1668 2378.28 1661.65 2396.51C1657.47 2408.64 1667.53 2402.49 1653.48 2415.17C1636.44 2430.42 1597.52 2436.57 1576.5 2442.64Z" stroke="#F2F2F2" stroke-width="5"/>
<path fill-rule="evenodd" clip-rule="evenodd" d="M1388.93 2411.86C1177.73 2454.35 954.071 2456.37 739.536 2418.7C685.454 2409.22 629.169 2411.49 574.423 2409.07C521.23 2406.76 426.657 2411.57 388.023 2372.26C360.008 2343.76 390.406 2283.2 400.921 2251.33C414.317 2210.72 426.024 2168.77 404.029 2129.33C391.146 2106.23 373.495 2084.24 359.677 2061.36C353.069 2050.43 339.462 2033.69 345.134 2023.34C354.517 2006.26 398.417 1999.07 419.718 1991.01C487.8 1965.27 559.895 1958.7 632.684 1958.89C767.128 1959.22 902.267 1976.89 1034.15 2000.86C1094.82 2011.89 1156.34 2023.65 1214.86 2042.82C1247.97 2053.67 1272.4 2074.58 1304.02 2086.99C1405.83 2126.95 1515.22 2148.3 1618.78 2184.83C1648.76 2195.42 1760.72 2230.64 1704.32 2272.17C1649.71 2312.38 1570.05 2307.6 1513.27 2345.42C1506.84 2349.76 1498.89 2354.94 1495.17 2361.94C1492.97 2366.13 1496.84 2374.1 1495.17 2376.48C1477.73 2402.36 1415.74 2406.48 1388.93 2411.86Z" stroke="#D9D9D9" stroke-width="5"/>
<path fill-rule="evenodd" clip-rule="evenodd" d="M1252.1 2383.78C1143.75 2398.06 1033.01 2401.61 922.837 2402.51C862.613 2403 796.446 2406.69 737.52 2392.03C701.322 2383 666.361 2375.1 629.047 2369.41C588.898 2363.29 524.255 2358.83 499.807 2325.63C481.542 2300.83 494.06 2249.84 494.724 2219.68C495.433 2186.6 488.374 2162.07 464.077 2138.39C448.798 2123.49 378.711 2069.38 386.81 2053.77C394.517 2038.91 443.354 2036.63 464.469 2032.77C531.208 2020.52 598.837 2016.25 666.723 2016.92C771.862 2017.93 877.393 2028.24 980.889 2045.95C1023.68 2053.31 1067.9 2060.93 1108.77 2075.63C1136.3 2085.54 1159.25 2103.12 1186.6 2113.37C1264.9 2142.76 1347.71 2162.72 1426.29 2192.65C1451.5 2202.27 1533.67 2227.89 1513.97 2267.37C1497.55 2300.34 1441.68 2310.37 1414.23 2332.46C1367.54 2370.14 1311.64 2375.94 1252.1 2383.78Z" stroke="#D9D9D9" stroke-width="5"/>
<path fill-rule="evenodd" clip-rule="evenodd" d="M1183.84 2364.84C1097.89 2374.29 1009.94 2378.43 922.727 2378.63C866.442 2378.76 807.063 2379.5 751.83 2367.34C724.086 2361.24 699.977 2346.97 673.72 2336.79C646.682 2326.32 609.369 2314.64 597.683 2290.64C586.702 2268.08 590.803 2235.18 581.159 2207.98C572.582 2183.85 554.632 2168.95 535.3 2152.64C522.982 2142.21 459.728 2097.09 467.043 2087.13C474.884 2076.46 512.873 2077.33 532.641 2075.85C587.105 2071.72 641.761 2070.4 696.372 2071.9C770.907 2074.1 846.013 2080.23 919.257 2094.11C971.215 2103.94 1010.41 2127.36 1058.85 2144.54C1121.61 2166.85 1186.62 2184.49 1248.78 2208.89C1279.75 2221.05 1325.6 2236.7 1341.46 2268.08C1347.56 2280.11 1353.48 2310.71 1346.69 2322.74C1338.53 2337.19 1308.17 2343.32 1293.84 2347.04C1257.94 2356.31 1220.37 2360.82 1183.84 2364.84Z" stroke="white" stroke-width="5"/>
<path fill-rule="evenodd" clip-rule="evenodd" d="M1103.32 2341.75C995.875 2353.37 874.478 2363.24 766.704 2339.85C723.151 2330.41 679.778 2302.45 662.018 2264.32C652.816 2244.6 650.838 2221.14 637.094 2202.04C626.918 2187.92 613.969 2175.17 601.2 2163.29C594.006 2156.58 547.92 2119.81 556.807 2113.25C566.189 2106.32 589.21 2108.58 604.931 2108.41C642.595 2107.99 680.408 2109.38 717.951 2112.13C761.114 2115.29 805.297 2119.39 847.156 2130.49C880.923 2139.49 911.692 2158.45 944.574 2169.71C1031.02 2199.53 1122.11 2222.89 1203.27 2267.03C1220.54 2276.42 1254.68 2290.46 1233.93 2311.67C1208.13 2338.09 1136.52 2338.18 1103.32 2341.75Z" stroke="#F2F2F2" stroke-width="5"/>
<path fill-rule="evenodd" clip-rule="evenodd" d="M1009.66 2320.81C933.152 2328.94 848.279 2332.77 771.467 2316C732.568 2307.52 697.868 2289.85 680.926 2255.65C668.804 2231.27 665.531 2204.06 648.968 2180.63C643.104 2172.37 621.556 2149.17 632.178 2144.11C654.908 2133.22 705.641 2145.75 737.175 2151.47C784.635 2160.12 824.261 2184.36 869.387 2198.72C938.607 2220.75 1026.31 2232.52 1089.4 2270.07C1150.19 2306.38 1031.98 2318.43 1009.66 2320.81Z" stroke="#D9D9D9" stroke-width="5"/>
<path fill-rule="evenodd" clip-rule="evenodd" d="M922.177 2300.91C857.261 2308.23 741.812 2311.85 704.778 2252.97C697.906 2242.03 678.933 2181.67 697.268 2176.28C712.379 2171.86 736.095 2179.16 753.168 2185.99C784.927 2198.63 814.724 2212.4 847.547 2222.83C875.489 2231.7 904.101 2239.89 931.679 2250.2C943.385 2254.52 965.383 2259.77 972.726 2269.62C992.49 2296.13 941.941 2298.69 922.177 2300.91Z" fill="#212326"/>
</g>
</svg>
